<?xml version="1.0"?>
<!-- Created by MetaPost 1.9991 on 2017.12.28:1247 -->
<svg version="1.1" xmlns="http://www.w3.org/2000/svg" xmlns:xlink="http://www.w3.org/1999/xlink" width="294.545471" height="94.545471" viewBox="0 0 294.545471 94.545471">
<!-- Original BoundingBox: -7.272736 -7.272736 287.272736 87.272736 -->
  <path d="M7.000000 87.000000C100.331909 87.000000,193.668091 87.000000,287.000000 87.000000L287.000000 7.000000C193.668091 7.000000,100.331909 7.000000,7.000000 7.000000Z" style="stroke:rgb(100.000000%,100.000000%,100.000000%); stroke-width: 14.545456;fill: rgb(100.000000%,100.000000%,100.000000%);"></path>
  <path d="M7.000000 87.000000C100.331909 87.000000,193.668091 87.000000,287.000000 87.000000L287.000000 7.000000C193.668091 7.000000,100.331909 7.000000,7.000000 7.000000Z" style="stroke:rgb(0.000000%,0.000000%,0.000000%); stroke-width: 14.545456;stroke-linecap: round;stroke-linejoin: round;stroke-miterlimit: 10.000000;fill: none;"></path>
  <path d="M32.974030 63.628632l0 0" style="stroke:rgb(0.000000%,0.000000%,0.000000%); stroke-width: 11.428574;stroke-linecap: round;stroke-linejoin: round;stroke-miterlimit: 10.000000;fill: none;"></path>
  <path d="M32.974030 46.828583l0 0" style="stroke:rgb(0.000000%,0.000000%,0.000000%); stroke-width: 11.428574;stroke-linecap: round;stroke-linejoin: round;stroke-miterlimit: 10.000000;fill: none;"></path>
  <path d="M32.974030 30.028534l0 0" style="stroke:rgb(0.000000%,0.000000%,0.000000%); stroke-width: 11.428574;stroke-linecap: round;stroke-linejoin: round;stroke-miterlimit: 10.000000;fill: none;"></path>
  <path d="M49.774078 63.628632l0 0" style="stroke:rgb(0.000000%,0.000000%,0.000000%); stroke-width: 11.428574;stroke-linecap: round;stroke-linejoin: round;stroke-miterlimit: 10.000000;fill: none;"></path>
  <path d="M49.774078 46.828583l0 0" style="stroke:rgb(0.000000%,0.000000%,0.000000%); stroke-width: 11.428574;stroke-linecap: round;stroke-linejoin: round;stroke-miterlimit: 10.000000;fill: none;"></path>
  <path d="M49.774078 30.028534l0 0" style="stroke:rgb(0.000000%,0.000000%,0.000000%); stroke-width: 11.428574;stroke-linecap: round;stroke-linejoin: round;stroke-miterlimit: 10.000000;fill: none;"></path>
  <path d="M66.574127 63.628632l0 0" style="stroke:rgb(0.000000%,0.000000%,0.000000%); stroke-width: 11.428574;stroke-linecap: round;stroke-linejoin: round;stroke-miterlimit: 10.000000;fill: none;"></path>
  <path d="M66.574127 46.828583l0 0" style="stroke:rgb(0.000000%,0.000000%,0.000000%); stroke-width: 11.428574;stroke-linecap: round;stroke-linejoin: round;stroke-miterlimit: 10.000000;fill: none;"></path>
  <path d="M66.574127 30.028534l0 0" style="stroke:rgb(0.000000%,0.000000%,0.000000%); stroke-width: 11.428574;stroke-linecap: round;stroke-linejoin: round;stroke-miterlimit: 10.000000;fill: none;"></path>
  <path d="M180.333313 35.571411L180.333313 47.000000L191.761902 47.000000L258.428574 47.000000L258.428574 35.571411L246.999985 35.571411Z" style="fill: rgb(0.000000%,0.000000%,0.000000%);stroke: none;"></path>
</svg>
