<?xml version="1.0"?>
<!-- Created by MetaPost 1.9991 on 2017.12.28:1332 -->
<svg version="1.1" xmlns="http://www.w3.org/2000/svg" xmlns:xlink="http://www.w3.org/1999/xlink" width="295.999756" height="295.999756" viewBox="0 0 295.999756 295.999756">
<!-- Original BoundingBox: -8.000000 -8.000000 287.999756 287.999756 -->
  <path d="M0.000000 295.000000C98.665085 295.000000,197.334671 295.000000,295.999756 295.000000C295.999756 196.334915,295.999756 97.665329,295.999756 -0.999756C197.334671 -0.999756,98.665085 -0.999756,0.000000 -0.999756C0.000000 97.665329,0.000000 196.334915,0.000000 295.000000Z" style="fill: rgb(100.000000%,100.000000%,100.000000%);stroke: none;"></path>
  <path d="M68.000000 175.000076C121.332520 175.000076,174.667480 175.000076,228.000000 175.000076C228.000000 121.667557,228.000000 68.332596,228.000000 15.000076C174.667480 15.000076,121.332520 15.000076,68.000000 15.000076C68.000000 68.332596,68.000000 121.667557,68.000000 175.000076Z" style="stroke:rgb(0.000000%,0.000000%,0.000000%); stroke-width: 14.545456;stroke-linecap: round;stroke-linejoin: round;stroke-miterlimit: 10.000000;fill: none;"></path>
  <path d="M97.090912 145.909164L198.909088 145.909164L198.909088 44.090988L97.090912 44.090988Z" style="stroke:rgb(0.000000%,0.000000%,0.000000%); stroke-width: 14.545456;fill: rgb(0.000000%,0.000000%,0.000000%);"></path>
  <path d="M8.000000 287.000000C101.331909 287.000000,194.668091 287.000000,288.000000 287.000000L288.000000 207.000000C194.668091 207.000000,101.331909 207.000000,8.000000 207.000000Z" style="stroke:rgb(0.000000%,0.000000%,0.000000%); stroke-width: 14.545456;stroke-linecap: round;stroke-linejoin: round;stroke-miterlimit: 10.000000;fill: none;"></path>
  <path d="M33.974030 263.628632l0 0" style="stroke:rgb(0.000000%,0.000000%,0.000000%); stroke-width: 11.428574;stroke-linecap: round;stroke-linejoin: round;stroke-miterlimit: 10.000000;fill: none;"></path>
  <path d="M33.974030 246.828583l0 0" style="stroke:rgb(0.000000%,0.000000%,0.000000%); stroke-width: 11.428574;stroke-linecap: round;stroke-linejoin: round;stroke-miterlimit: 10.000000;fill: none;"></path>
  <path d="M33.974030 230.028534l0 0" style="stroke:rgb(0.000000%,0.000000%,0.000000%); stroke-width: 11.428574;stroke-linecap: round;stroke-linejoin: round;stroke-miterlimit: 10.000000;fill: none;"></path>
  <path d="M50.774078 263.628632l0 0" style="stroke:rgb(0.000000%,0.000000%,0.000000%); stroke-width: 11.428574;stroke-linecap: round;stroke-linejoin: round;stroke-miterlimit: 10.000000;fill: none;"></path>
  <path d="M50.774078 246.828583l0 0" style="stroke:rgb(0.000000%,0.000000%,0.000000%); stroke-width: 11.428574;stroke-linecap: round;stroke-linejoin: round;stroke-miterlimit: 10.000000;fill: none;"></path>
  <path d="M50.774078 230.028534l0 0" style="stroke:rgb(0.000000%,0.000000%,0.000000%); stroke-width: 11.428574;stroke-linecap: round;stroke-linejoin: round;stroke-miterlimit: 10.000000;fill: none;"></path>
  <path d="M67.574127 263.628632l0 0" style="stroke:rgb(0.000000%,0.000000%,0.000000%); stroke-width: 11.428574;stroke-linecap: round;stroke-linejoin: round;stroke-miterlimit: 10.000000;fill: none;"></path>
  <path d="M67.574127 246.828583l0 0" style="stroke:rgb(0.000000%,0.000000%,0.000000%); stroke-width: 11.428574;stroke-linecap: round;stroke-linejoin: round;stroke-miterlimit: 10.000000;fill: none;"></path>
  <path d="M67.574127 230.028534l0 0" style="stroke:rgb(0.000000%,0.000000%,0.000000%); stroke-width: 11.428574;stroke-linecap: round;stroke-linejoin: round;stroke-miterlimit: 10.000000;fill: none;"></path>
  <path d="M181.333313 235.571411L181.333313 247.000000L192.761902 247.000000L259.428574 247.000000L259.428574 235.571411L247.999985 235.571411Z" style="fill: rgb(0.000000%,0.000000%,0.000000%);stroke: none;"></path>
  <path d="M122.750000 107.000031L172.750000 107.000031L172.750000 57.000031L122.750000 57.000031Z" style="stroke:rgb(100.000000%,100.000000%,0.000000%); stroke-width: 4.545456;stroke-linecap: round;stroke-linejoin: round;stroke-miterlimit: 10.000000;fill: none;"></path>
  <path d="M131.840912 97.909119L163.659088 97.909119L163.659088 66.090942L131.840912 66.090942Z" style="stroke:rgb(100.000000%,100.000000%,0.000000%); stroke-width: 4.545456;fill: rgb(100.000000%,100.000000%,0.000000%);"></path>
  <path d="M104.000000 142.000000L191.500000 142.000000L191.500000 117.000000L104.000000 117.000000Z" style="stroke:rgb(100.000000%,100.000000%,0.000000%); stroke-width: 4.545456;stroke-linecap: round;stroke-linejoin: round;stroke-miterlimit: 10.000000;fill: none;"></path>
  <path d="M112.116882 134.696457l0 0" style="stroke:rgb(100.000000%,100.000000%,0.000000%); stroke-width: 3.571426;stroke-linecap: round;stroke-linejoin: round;stroke-miterlimit: 10.000000;fill: none;"></path>
  <path d="M112.116882 129.446442l0 0" style="stroke:rgb(100.000000%,100.000000%,0.000000%); stroke-width: 3.571426;stroke-linecap: round;stroke-linejoin: round;stroke-miterlimit: 10.000000;fill: none;"></path>
  <path d="M112.116882 124.196426l0 0" style="stroke:rgb(100.000000%,100.000000%,0.000000%); stroke-width: 3.571426;stroke-linecap: round;stroke-linejoin: round;stroke-miterlimit: 10.000000;fill: none;"></path>
  <path d="M117.366898 134.696457l0 0" style="stroke:rgb(100.000000%,100.000000%,0.000000%); stroke-width: 3.571426;stroke-linecap: round;stroke-linejoin: round;stroke-miterlimit: 10.000000;fill: none;"></path>
  <path d="M117.366898 129.446442l0 0" style="stroke:rgb(100.000000%,100.000000%,0.000000%); stroke-width: 3.571426;stroke-linecap: round;stroke-linejoin: round;stroke-miterlimit: 10.000000;fill: none;"></path>
  <path d="M117.366898 124.196426l0 0" style="stroke:rgb(100.000000%,100.000000%,0.000000%); stroke-width: 3.571426;stroke-linecap: round;stroke-linejoin: round;stroke-miterlimit: 10.000000;fill: none;"></path>
  <path d="M122.616913 134.696457l0 0" style="stroke:rgb(100.000000%,100.000000%,0.000000%); stroke-width: 3.571426;stroke-linecap: round;stroke-linejoin: round;stroke-miterlimit: 10.000000;fill: none;"></path>
  <path d="M122.616913 129.446442l0 0" style="stroke:rgb(100.000000%,100.000000%,0.000000%); stroke-width: 3.571426;stroke-linecap: round;stroke-linejoin: round;stroke-miterlimit: 10.000000;fill: none;"></path>
  <path d="M122.616913 124.196426l0 0" style="stroke:rgb(100.000000%,100.000000%,0.000000%); stroke-width: 3.571426;stroke-linecap: round;stroke-linejoin: round;stroke-miterlimit: 10.000000;fill: none;"></path>
  <path d="M158.166672 125.928558L158.166672 129.500000L161.738113 129.500000L182.571442 129.500000L182.571442 125.928558L179.000000 125.928558Z" style="fill: rgb(100.000000%,100.000000%,0.000000%);stroke: none;"></path>
</svg>
